<svg
    xmlns="http://www.w3.org/2000/svg"
    viewBox="0 0 64 64"
    width="64"
    height="64"
    fill="#4CAF50"
>
    <rect x="10" y="2" width="44" height="60" rx="4" ry="4" fill="#fff" />
    <path
        d="M38 2H10C8.9 2 8 2.9 8 4v56c0 1.1.9 2 2 2h44c1.1 0 2-.9 2-2V24L38 2z"
        fill="#E0E0E0"
    />
    <path
        d="M32 12h-8v8h8V12zM30 20h-6v6h6v-6z"
        fill="#4CAF50"
    />
    <path
        d="M20 40c1.5 0 3 1.3 3 3s-1.5 3-3 3-3-1.3-3-3 1.5-3 3-3zm0-2c-2.8 0-5 2.2-5 5s2.2 5 5 5 5-2.2 5-5-2.2-5-5-5z"
        fill="#4CAF50"
    />
    <path
        d="M26 44h8v2h-8v-2zm-3-5h14v2H23v-2z"
        fill="#4CAF50"
    />
    <path
        d="M18 52h28v2H18v-2z"
        fill="#4CAF50"
    />
</svg>